<?xml version="1.0" encoding="UTF-8"?><svg id="Ebene_1" xmlns="http://www.w3.org/2000/svg" xmlns:xlink="http://www.w3.org/1999/xlink" viewBox="0 0 947.18 434.13"><defs><style>.cls-1{fill:url(#Unbenannter_Verlauf_7);}.cls-1,.cls-2{stroke-width:0px;}.cls-2{fill:#3b3b3a;}</style><linearGradient id="Unbenannter_Verlauf_7" x1="404.12" y1="225.9" x2="606.54" y2="225.9" gradientUnits="userSpaceOnUse"><stop offset="0" stop-color="#313d91"/><stop offset="1" stop-color="#35a9e1"/></linearGradient></defs><path class="cls-2" d="m105.75,124.92l44.14,143.39,43.57-143.39h40.39v201.95h-40.39v-77.9l-25.39,77.9h-37.22l-25.1-77.32v77.32h-40.39V124.92h40.39Z"/><path class="cls-2" d="m256.96,266.87v-113.09h40.39v113.09c0,8.37,0,31.44,17.6,31.44h5.77c19.91,0,19.91-25.96,19.91-34.33v-110.2h40.39v113.09c0,28.27-11.25,62.6-53.95,62.6h-16.15c-42.7,0-53.95-34.33-53.95-62.6Z"/><path class="cls-2" d="m740.25,124.92v34.62h-70.4v43.28c17.6-6.35,39.24-7.79,62.32-6.35v37.22c-20.2-1.44-46.16-.58-62.32,8.94v49.62h70.97v34.62h-111.36V124.92h110.79Z"/><path class="cls-2" d="m764.22,124.92h76.17c29.43,0,42.12,15.58,42.12,37.79v20.2c-1.44,36.35-11.54,56.55-25.1,68.09,15,18.46,23.95,42.99,24.81,75.59h-40.39c-.29-23.37-6.93-46.45-21.64-59.14l-16.45,3.46.58,55.97h-40.39l.29-201.95Zm80.78,57.99c0-7.5,1.16-19.62-6.93-20.49h-33.47l-.29,70.4c26.54-4.91,40.68-11.83,40.68-49.91Z"/><path class="cls-1" d="m473.53,124.92v34.62h24.22v58.12h-53.24v-92.74h-40.39v201.95h133.01v-34.62h-24.94v-60.17h53.96v94.79h40.39V124.92h-133.01Zm24.22,167.33h-53.24v-60.17h53.24v60.17Zm14.43-74.59v-58.12h53.96v58.12h-53.96Z"/><rect class="cls-2" x="256.71" y="123.22" width="40.9" height="20.45" rx="6.13" ry="6.13"/><rect class="cls-2" x="340.37" y="123.22" width="40.9" height="20.45" rx="6.13" ry="6.13"/><path class="cls-2" d="m364.81,393.31h-20.21c-.74,0-.98.33-.98.9v5.67c0,.57.24.9.98.9h16.59c.41,0,.83.16.83.74v10.6c0,.57-.42.74-.83.74h-16.59c-.74,0-.98.33-.98.9v18.48c0,.65-.42.82-.83.82h-12.16c-.41,0-.74-.17-.74-.82v-50.19c0-.65.33-.82.74-.82h34.17c.33,0,.82.17.82.82v10.51c0,.58-.33.74-.82.74Z"/><path class="cls-2" d="m404.5,433.06h-34.17c-.41,0-.74-.17-.74-.82v-50.19c0-.65.33-.82.74-.82h34.17c.33,0,.82.17.82.82v10.51c0,.58-.33.74-.82.74h-20.21c-.74,0-.99.33-.99.9v5.67c0,.57.25.9.99.9h16.59c.41,0,.82.16.82.74v10.6c0,.57-.41.74-.82.74h-16.59c-.74,0-.99.33-.99.9v6.33c0,.57.25.9.99.9h20.21c.41,0,.82.16.82.74v10.51c0,.65-.33.82-.82.82Z"/><path class="cls-2" d="m449.28,433.06h-10.26c-.41,0-.66-.33-.9-.74l-12.24-22.67c-1.07-1.89-1.72-3.69-1.72-3.69h-.33s.49,6.49.49,13.23v13.06c0,.65-.33.82-.82.82h-11.83c-.41,0-.74-.17-.74-.82v-50.19c0-.65.33-.82.74-.82h10.43c.49,0,.82.25,1.07.74l12.16,23.16c1.15,2.13,1.81,3.94,1.81,3.94h.24s-.41-6.41-.41-13.72v-13.31c0-.65.25-.82.74-.82h11.58c.33,0,.82.17.82.82v50.19c0,.65-.33.82-.82.82Z"/><path class="cls-2" d="m475.01,434.13h-2.55c-5.67,0-10.26-1.81-13.55-5.01-1.31-1.23-2.38-2.63-3.28-4.19-.33-.49-.66-1.24.16-1.73l8.55-5.67c.57-.41,1.31-.41,1.64.25,1.48,2.79,3.53,4.27,6.33,4.27h2.55c2.55,0,4.19-1.4,4.19-3.78,0-3.7-4.1-4.19-9.61-6.08-8.79-3.04-13.72-6.65-13.72-15.77,0-10.19,6.82-16.26,18.07-16.26h1.23c5.34,0,9.69,1.56,12.9,4.35,1.56,1.31,2.87,2.96,3.94,4.76.33.49.65,1.31-.17,1.81l-8.54,5.67c-.58.41-1.31.41-1.64-.25-1.48-2.79-3.53-4.27-6.33-4.27h-1.4c-2.46,0-4.1,1.15-4.1,3.78,0,3.2,5.01,4.35,9.12,5.67,9.61,3.04,14.21,7.06,14.21,16.26,0,10.1-6.4,16.19-17.99,16.19Z"/><path class="cls-2" d="m528.67,393.31h-9.2c-.82,0-.99.33-.99.9v38.03c0,.65-.41.82-.82.82h-12.08c-.41,0-.74-.17-.74-.82v-38.03c0-.58-.16-.9-1.06-.9h-9.12c-.41,0-.82-.17-.82-.74v-10.51c0-.65.41-.82.82-.82h34.01c.24,0,.74.17.74.82v10.51c0,.58-.33.74-.74.74Z"/><path class="cls-2" d="m568.68,433.06h-34.17c-.41,0-.74-.17-.74-.82v-50.19c0-.65.33-.82.74-.82h34.17c.33,0,.82.17.82.82v10.51c0,.58-.33.74-.82.74h-20.21c-.74,0-.98.33-.98.9v5.67c0,.57.24.9.98.9h16.59c.41,0,.83.16.83.74v10.6c0,.57-.42.74-.83.74h-16.59c-.74,0-.98.33-.98.9v6.33c0,.57.24.9.98.9h20.21c.41,0,.82.16.82.74v10.51c0,.65-.33.82-.82.82Z"/><path class="cls-2" d="m617.32,433.06h-12.81c-.33,0-.58-.24-.74-.58l-7.55-19.05c-.17-.41-.41-.58-.74-.58h-5.67c-.74,0-.99.33-.99.9v18.48c0,.65-.41.82-.82.82h-12.16c-.41,0-.74-.17-.74-.82v-50.19c0-.65.33-.82.74-.82h22.92c10.76,0,17.66,6.16,17.66,16.26v.74c0,5.09-2.38,9.03-6,11.33-.74.49-.65,1.06-.41,1.81l8.05,20.61c.24.58.08,1.07-.74,1.07Zm-14.46-36.31c0-2.22-1.39-3.45-4.1-3.45h-8.96c-.74,0-.99.33-.99.9v6.49c0,.58.25.9.99.9h8.96c2.55,0,4.1-1.07,4.1-3.29v-1.56Z"/><path class="cls-2" d="m332.87,29.41l-10.18,4.68c-.66.33-1.24-.08-1.56-.65-1.64-2.96-3.45-4.6-5.91-4.6h-5.83c-2.79,0-4.35,1.4-4.35,3.45v23.08c0,2.05,1.89,3.37,4.35,3.37h5.75c2.55,0,4.03-1.23,4.03-3.37v-3.37c0-.57-.41-.82-.99-.82h-6.16c-.41,0-.74-.24-.74-.82v-8.79c0-.65.33-.82.74-.82h20.04c.58,0,.74.17.74.82v13.8c0,9.69-6.41,15.44-17.66,15.44h-5.75c-11.42,0-17.82-5.92-17.82-15.44v-23.08c0-9.28,6.73-15.44,17.82-15.44h6.49c5.67,0,9.78,1.56,13.06,5.01,1.48,1.56,2.88,3.62,4.11,6,.24.49.49,1.23-.17,1.56Z"/><path class="cls-2" d="m374.2,69.74h-34.17c-.41,0-.74-.17-.74-.82V18.73c0-.65.33-.82.74-.82h34.17c.33,0,.82.17.82.82v10.51c0,.58-.33.74-.82.74h-20.21c-.74,0-.99.33-.99.9v5.67c0,.57.25.9.99.9h16.59c.41,0,.82.16.82.74v10.6c0,.57-.41.74-.82.74h-16.59c-.74,0-.99.33-.99.9v6.33c0,.57.25.9.99.9h20.21c.41,0,.82.16.82.74v10.51c0,.65-.33.82-.82.82Z"/><path class="cls-2" d="m404.28,69.74h-22.92c-.41,0-.74-.17-.74-.82V18.73c0-.65.33-.82.74-.82h22.92c11.17,0,17.66,4.85,17.66,14.62v2.38c0,3.53-1.8,6.65-4.84,8.21-.66.33-.66.74,0,1.06,3.04,1.56,4.84,4.76,4.84,8.22v2.3c0,8.79-6.24,15.03-17.66,15.03Zm4.1-36.31c0-1.97-1.31-3.45-4.1-3.45h-8.96c-.74,0-.98.33-.98.9v6.49c0,.58.24.9.98.9h8.96c2.87,0,4.1-1.31,4.1-3.29v-1.56Zm0,18.56c0-1.8-1.48-3.28-4.1-3.28h-8.96c-.74,0-.98.33-.98.9v7.15c0,.57.24.9.98.9h8.96c2.3,0,4.1-1.65,4.1-3.37v-2.3Z"/><path class="cls-2" d="m470.42,69.74h-12.81c-.33,0-.58-.24-.74-.58l-7.55-19.05c-.17-.41-.41-.58-.74-.58h-5.67c-.74,0-.98.33-.98.9v18.48c0,.65-.42.82-.83.82h-12.16c-.41,0-.74-.17-.74-.82V18.73c0-.65.33-.82.74-.82h22.92c10.76,0,17.66,6.16,17.66,16.26v.74c0,5.09-2.38,9.03-5.99,11.33-.74.49-.65,1.06-.41,1.81l8.05,20.61c.24.58.08,1.07-.74,1.07Zm-14.46-36.31c0-2.22-1.39-3.45-4.1-3.45h-8.96c-.74,0-.98.33-.98.9v6.49c0,.58.24.9.98.9h8.96c2.55,0,4.1-1.07,4.1-3.29v-1.56Z"/><path class="cls-2" d="m498.85,70.81h-5.75c-10.67,0-17.74-6.16-17.74-15.44V18.73c0-.65.24-.82.74-.82h11.91c.33,0,.74.17.74.82v36.64c0,2.05,1.31,3.37,4.35,3.37h5.75c2.88,0,4.11-1.31,4.11-3.37V18.73c0-.65.33-.82.74-.82h12.07c.49,0,.74.17.74.82v36.64c0,9.28-7.15,15.44-17.66,15.44Zm-10.92-58.98c-3.28,0-5.99-2.46-5.99-5.83s2.71-6,5.99-6,5.92,2.71,5.92,6-2.63,5.83-5.92,5.83Zm15.85,0c-3.29,0-5.92-2.55-5.92-5.83s2.55-6,5.92-6,5.99,2.71,5.99,6-2.71,5.83-5.99,5.83Z"/><path class="cls-2" d="m547.83,69.74h-22.92c-.41,0-.74-.17-.74-.82V18.73c0-.65.33-.82.74-.82h22.92c10.76,0,17.66,6.16,17.66,16.26v19.47c0,9.94-6.9,16.1-17.66,16.1Zm4.1-36.31c0-1.64-1.89-3.45-4.1-3.45h-8.96c-.74,0-.99.33-.99.9v25.87c0,.57.25.9.99.9h8.96c2.3,0,4.1-1.65,4.1-3.37v-20.86Z"/><path class="cls-2" d="m607.23,69.74h-34.17c-.41,0-.74-.17-.74-.82V18.73c0-.65.33-.82.74-.82h34.17c.33,0,.82.17.82.82v10.51c0,.58-.33.74-.82.74h-20.21c-.74,0-.98.33-.98.9v5.67c0,.57.24.9.98.9h16.59c.41,0,.83.16.83.74v10.6c0,.57-.42.74-.83.74h-16.59c-.74,0-.98.33-.98.9v6.33c0,.57.24.9.98.9h20.21c.41,0,.82.16.82.74v10.51c0,.65-.33.82-.82.82Z"/><path class="cls-2" d="m655.88,69.74h-12.81c-.33,0-.58-.24-.74-.58l-7.55-19.05c-.17-.41-.41-.58-.74-.58h-5.67c-.74,0-.98.33-.98.9v18.48c0,.65-.42.82-.83.82h-12.16c-.41,0-.74-.17-.74-.82V18.73c0-.65.33-.82.74-.82h22.92c10.76,0,17.66,6.16,17.66,16.26v.74c0,5.09-2.38,9.03-5.99,11.33-.74.49-.65,1.06-.41,1.81l8.05,20.61c.24.58.08,1.07-.74,1.07Zm-14.46-36.31c0-2.22-1.39-3.45-4.1-3.45h-8.96c-.74,0-.98.33-.98.9v6.49c0,.58.24.9.98.9h8.96c2.55,0,4.1-1.07,4.1-3.29v-1.56Z"/><polygon class="cls-2" points="317.74 401.39 11.52 401.39 11.52 52.84 278.99 52.84 278.99 41.31 0 41.31 0 412.91 317.74 412.91 317.74 401.39"/><polygon class="cls-2" points="667.61 41.31 667.61 52.84 935.65 52.84 935.65 401.39 629.46 401.39 629.46 412.91 947.18 412.91 947.18 41.31 667.61 41.31"/></svg>